<svg width="24" height="24" viewBox="0 0 24 24" fill="none" xmlns="http://www.w3.org/2000/svg">
<mask id="mask0_50_486" style="mask-type:alpha" maskUnits="userSpaceOnUse" x="0" y="0" width="24" height="24">
<rect width="24" height="24" fill="#D9D9D9"/>
</mask>
<g mask="url(#mask0_50_486)">
<path d="M5.34625 17.3462C5.72825 17.3462 6.04808 17.2173 6.30575 16.9595C6.56342 16.7018 6.69225 16.382 6.69225 16C6.69225 15.618 6.56342 15.2982 6.30575 15.0405C6.04808 14.7827 5.72825 14.6538 5.34625 14.6538C4.96408 14.6538 4.64417 14.7827 4.3865 15.0405C4.12883 15.2982 4 15.618 4 16C4 16.382 4.12883 16.7018 4.3865 16.9595C4.64417 17.2173 4.96408 17.3462 5.34625 17.3462ZM9.34625 12.923C9.60775 12.923 9.82692 12.8346 10.0037 12.6578C10.1807 12.4808 10.2692 12.2615 10.2692 12C10.2692 11.7385 10.1807 11.5192 10.0037 11.3423C9.82692 11.1654 9.60775 11.077 9.34625 11.077C9.08458 11.077 8.86533 11.1654 8.6885 11.3423C8.5115 11.5192 8.423 11.7385 8.423 12C8.423 12.2615 8.5115 12.4808 8.6885 12.6578C8.86533 12.8346 9.08458 12.923 9.34625 12.923ZM9.34625 8.923C9.60775 8.923 9.82692 8.83458 10.0037 8.65775C10.1807 8.48075 10.2692 8.2615 10.2692 8C10.2692 7.7385 10.1807 7.51925 10.0037 7.34225C9.82692 7.16542 9.60775 7.077 9.34625 7.077C9.08458 7.077 8.86533 7.16542 8.6885 7.34225C8.5115 7.51925 8.423 7.7385 8.423 8C8.423 8.2615 8.5115 8.48075 8.6885 8.65775C8.86533 8.83458 9.08458 8.923 9.34625 8.923ZM5.34625 9.34625C5.72825 9.34625 6.04808 9.21733 6.30575 8.9595C6.56342 8.70183 6.69225 8.382 6.69225 8C6.69225 7.618 6.56342 7.29817 6.30575 7.0405C6.04808 6.78267 5.72825 6.65375 5.34625 6.65375C4.96408 6.65375 4.64417 6.78267 4.3865 7.0405C4.12883 7.29817 4 7.618 4 8C4 8.382 4.12883 8.70183 4.3865 8.9595C4.64417 9.21733 4.96408 9.34625 5.34625 9.34625ZM5.34625 13.3463C5.72825 13.3463 6.04808 13.2173 6.30575 12.9595C6.56342 12.7018 6.69225 12.382 6.69225 12C6.69225 11.618 6.56342 11.2982 6.30575 11.0405C6.04808 10.7827 5.72825 10.6538 5.34625 10.6538C4.96408 10.6538 4.64417 10.7827 4.3865 11.0405C4.12883 11.2982 4 11.618 4 12C4 12.382 4.12883 12.7018 4.3865 12.9595C4.64417 13.2173 4.96408 13.3463 5.34625 13.3463ZM9.34625 16.923C9.60775 16.923 9.82692 16.8346 10.0037 16.6578C10.1807 16.4808 10.2692 16.2615 10.2692 16C10.2692 15.7385 10.1807 15.5192 10.0037 15.3422C9.82692 15.1654 9.60775 15.077 9.34625 15.077C9.08458 15.077 8.86533 15.1654 8.6885 15.3422C8.5115 15.5192 8.423 15.7385 8.423 16C8.423 16.2615 8.5115 16.4808 8.6885 16.6578C8.86533 16.8346 9.08458 16.923 9.34625 16.923ZM17.3462 16.5C17.4962 16.5 17.6171 16.4542 17.7087 16.3625C17.8004 16.2708 17.8462 16.15 17.8462 16C17.8462 15.85 17.8004 15.7292 17.7087 15.6375C17.6171 15.5458 17.4962 15.5 17.3462 15.5C17.1962 15.5 17.0754 15.5458 16.9837 15.6375C16.8921 15.7292 16.8462 15.85 16.8462 16C16.8462 16.15 16.8921 16.2708 16.9837 16.3625C17.0754 16.4542 17.1962 16.5 17.3462 16.5ZM17.3462 8.5C17.4962 8.5 17.6171 8.45417 17.7087 8.3625C17.8004 8.27083 17.8462 8.15 17.8462 8C17.8462 7.85 17.8004 7.72917 17.7087 7.6375C17.6171 7.54583 17.4962 7.5 17.3462 7.5C17.1962 7.5 17.0754 7.54583 16.9837 7.6375C16.8921 7.72917 16.8462 7.85 16.8462 8C16.8462 8.15 16.8921 8.27083 16.9837 8.3625C17.0754 8.45417 17.1962 8.5 17.3462 8.5ZM17.3462 12.5C17.4962 12.5 17.6171 12.4542 17.7087 12.3625C17.8004 12.2708 17.8462 12.15 17.8462 12C17.8462 11.85 17.8004 11.7292 17.7087 11.6375C17.6171 11.5458 17.4962 11.5 17.3462 11.5C17.1962 11.5 17.0754 11.5458 16.9837 11.6375C16.8921 11.7292 16.8462 11.85 16.8462 12C16.8462 12.15 16.8921 12.2708 16.9837 12.3625C17.0754 12.4542 17.1962 12.5 17.3462 12.5ZM13.3462 8.923C13.6077 8.923 13.8269 8.83458 14.0038 8.65775C14.1808 8.48075 14.2693 8.2615 14.2693 8C14.2693 7.7385 14.1808 7.51925 14.0038 7.34225C13.8269 7.16542 13.6077 7.077 13.3462 7.077C13.0846 7.077 12.8653 7.16542 12.6885 7.34225C12.5115 7.51925 12.423 7.7385 12.423 8C12.423 8.2615 12.5115 8.48075 12.6885 8.65775C12.8653 8.83458 13.0846 8.923 13.3462 8.923ZM13.3462 12.923C13.6077 12.923 13.8269 12.8346 14.0038 12.6578C14.1808 12.4808 14.2693 12.2615 14.2693 12C14.2693 11.7385 14.1808 11.5192 14.0038 11.3423C13.8269 11.1654 13.6077 11.077 13.3462 11.077C13.0846 11.077 12.8653 11.1654 12.6885 11.3423C12.5115 11.5192 12.423 11.7385 12.423 12C12.423 12.2615 12.5115 12.4808 12.6885 12.6578C12.8653 12.8346 13.0846 12.923 13.3462 12.923ZM13.3462 16.923C13.6077 16.923 13.8269 16.8346 14.0038 16.6578C14.1808 16.4808 14.2693 16.2615 14.2693 16C14.2693 15.7385 14.1808 15.5192 14.0038 15.3422C13.8269 15.1654 13.6077 15.077 13.3462 15.077C13.0846 15.077 12.8653 15.1654 12.6885 15.3422C12.5115 15.5192 12.423 15.7385 12.423 16C12.423 16.2615 12.5115 16.4808 12.6885 16.6578C12.8653 16.8346 13.0846 16.923 13.3462 16.923ZM3.5 20.5V3.5H20.5V20.5H3.5Z" fill="white"/>
</g>
</svg>
