<svg width="24" height="24" viewBox="0 0 24 24" fill="none" xmlns="http://www.w3.org/2000/svg">
<mask id="mask0_28_161" style="mask-type:alpha" maskUnits="userSpaceOnUse" x="0" y="0" width="24" height="24">
<rect width="24" height="24" fill="#D9D9D9"/>
</mask>
<g mask="url(#mask0_28_161)">
<path d="M5.58474 20.8421L3.14799 18.4056C2.80315 18.0588 2.63074 17.6365 2.63074 17.1386C2.63074 16.641 2.80315 16.2197 3.14799 15.8749L15.8655 3.15763C16.2123 2.8128 16.6346 2.64038 17.1322 2.64038C17.6299 2.64038 18.0512 2.8128 18.3962 3.15763L20.8327 5.59413C21.1776 5.94096 21.35 6.3633 21.35 6.86113C21.35 7.3588 21.1776 7.78005 20.8327 8.12488L8.11524 20.8421C7.7684 21.187 7.34615 21.3594 6.84849 21.3594C6.35082 21.3594 5.92957 21.187 5.58474 20.8421ZM12.623 17.5806L17.571 12.6326L20.823 15.8846C21.1743 16.2331 21.35 16.6574 21.35 17.1574C21.35 17.6575 21.1776 18.08 20.8327 18.4249L18.4345 20.8229C18.0833 21.1742 17.6567 21.3515 17.1547 21.3546C16.6529 21.3578 16.2263 21.1838 15.875 20.8326L12.623 17.5806ZM12.0017 14.7114C12.2582 14.7114 12.4727 14.6246 12.6452 14.4511C12.8176 14.2775 12.9037 14.0624 12.9037 13.8059C12.9037 13.5494 12.817 13.3349 12.6435 13.1624C12.47 12.9899 12.2549 12.9036 11.9982 12.9036C11.7417 12.9036 11.5272 12.9905 11.3547 13.1641C11.1824 13.3376 11.0962 13.5526 11.0962 13.8091C11.0962 14.0658 11.183 14.2803 11.3565 14.4526C11.53 14.6251 11.7451 14.7114 12.0017 14.7114ZM10.194 12.9036C10.4505 12.9036 10.665 12.8169 10.8375 12.6434C11.01 12.4699 11.0962 12.2548 11.0962 11.9981C11.0962 11.7416 11.0094 11.5271 10.8357 11.3546C10.6622 11.1823 10.4472 11.0961 10.1907 11.0961C9.93407 11.0961 9.71957 11.1829 9.54724 11.3564C9.37474 11.5299 9.28849 11.745 9.28849 12.0016C9.28849 12.2581 9.37524 12.4726 9.54874 12.6451C9.7224 12.8175 9.93749 12.9036 10.194 12.9036ZM13.8092 12.9036C14.0659 12.9036 14.2804 12.8169 14.4527 12.6434C14.6252 12.4699 14.7115 12.2548 14.7115 11.9981C14.7115 11.7416 14.6247 11.5271 14.4512 11.3546C14.2776 11.1823 14.0625 11.0961 13.806 11.0961C13.5495 11.0961 13.335 11.1829 13.1625 11.3564C12.99 11.5299 12.9037 11.745 12.9037 12.0016C12.9037 12.2581 12.9906 12.4726 13.1642 12.6451C13.3377 12.8175 13.5527 12.9036 13.8092 12.9036ZM6.40399 11.3421L3.17699 8.11513C2.83215 7.7703 2.65649 7.34855 2.64999 6.84988C2.64365 6.35121 2.8129 5.92946 3.15774 5.58463L5.58474 3.15763C5.93157 2.8128 6.35382 2.64038 6.85149 2.64038C7.34915 2.64038 7.7704 2.8128 8.11524 3.15763L11.3672 6.40963L6.40399 11.3421ZM12.0017 11.0961C12.2582 11.0961 12.4727 11.0093 12.6452 10.8356C12.8176 10.6621 12.9037 10.4471 12.9037 10.1906C12.9037 9.93396 12.817 9.71946 12.6435 9.54713C12.47 9.37463 12.2549 9.28838 11.9982 9.28838C11.7417 9.28838 11.5272 9.37513 11.3547 9.54863C11.1824 9.7223 11.0962 9.93738 11.0962 10.1939C11.0962 10.4504 11.183 10.6649 11.3565 10.8374C11.53 11.0099 11.7451 11.0961 12.0017 11.0961Z" fill="white"/>
</g>
</svg>
