<svg width="24" height="24" viewBox="0 0 24 24" fill="none" xmlns="http://www.w3.org/2000/svg">
<mask id="mask0_50_495" style="mask-type:alpha" maskUnits="userSpaceOnUse" x="0" y="0" width="24" height="24">
<rect width="24" height="24" fill="#D9D9D9"/>
</mask>
<g mask="url(#mask0_50_495)">
<path d="M3.5 9.35198V7.65973L8.04425 3.11548H9.7365L3.5 9.35198ZM3.5 4.86548V3.40398L3.7885 3.11548H5.25L3.5 4.86548ZM15.598 6.31923C15.457 6.18073 15.3067 6.04481 15.147 5.91148C14.9875 5.77815 14.8269 5.6609 14.6652 5.55973L17.1095 3.11548H18.8018L15.598 6.31923ZM5.0385 15.1865L7.55975 12.6652C7.65708 12.8294 7.75383 12.9769 7.85 13.1077C7.94617 13.2384 8.05325 13.3608 8.17125 13.475L7.45 14.1962C7.06017 14.3001 6.655 14.4379 6.2345 14.6097C5.814 14.7814 5.41533 14.9736 5.0385 15.1865ZM17.0673 9.35773V9.32673C17.0544 9.0999 17.0214 8.86856 16.9682 8.63273C16.9151 8.39673 16.8449 8.17556 16.7578 7.96923L20.5 4.22698V5.92498L17.0673 9.35773ZM10.727 4.96548L12.5922 3.11548H14.2845L12.5308 4.86923C12.4179 4.84873 12.3103 4.83331 12.2078 4.82298C12.1051 4.81281 11.9973 4.80773 11.8845 4.80773C11.7012 4.81406 11.5083 4.83198 11.3058 4.86148C11.1033 4.89098 10.9103 4.92565 10.727 4.96548ZM3.5 13.8845V12.1922L6.9655 8.72698C6.91933 8.92315 6.88308 9.11764 6.85675 9.31048C6.83042 9.50348 6.81725 9.69165 6.81725 9.87498C6.81725 9.98781 6.82242 10.0955 6.83275 10.198C6.84292 10.3006 6.85825 10.4032 6.87875 10.5057L3.5 13.8845ZM19.5807 15.873C19.4537 15.7306 19.3156 15.5951 19.1663 15.4662C19.0169 15.3374 18.8551 15.214 18.6807 15.096L20.5 13.2767V14.969L19.5807 15.873ZM17.1328 13.8037C17.0929 13.7217 17.0483 13.6438 16.999 13.57C16.9497 13.4963 16.8987 13.4236 16.8462 13.3517C16.7796 13.2634 16.709 13.175 16.6345 13.0865C16.5602 12.998 16.4833 12.9178 16.4038 12.846L20.5 8.73448V10.4517L17.1328 13.8037ZM12 13.5C11.0347 13.5 10.21 13.158 9.526 12.474C8.842 11.79 8.5 10.9653 8.5 9.99998C8.5 9.03465 8.842 8.20998 9.526 7.52598C10.21 6.84198 11.0347 6.49998 12 6.49998C12.9653 6.49998 13.79 6.84198 14.474 7.52598C15.158 8.20998 15.5 9.03465 15.5 9.99998C15.5 10.9653 15.158 11.79 14.474 12.474C13.79 13.158 12.9653 13.5 12 13.5ZM4.5 20.5V18.9077C4.5 18.3922 4.63367 17.9297 4.901 17.5202C5.16833 17.1106 5.52317 16.7936 5.9655 16.5692C6.79617 16.1551 7.72017 15.8092 8.7375 15.5317C9.75483 15.2542 10.8423 15.1155 12 15.1155C13.1577 15.1155 14.2452 15.2542 15.2625 15.5317C16.2798 15.8092 17.2038 16.1551 18.0345 16.5692C18.4705 16.7872 18.8238 17.1042 19.0943 17.5202C19.3648 17.9362 19.5 18.3987 19.5 18.9077V20.5H4.5Z" fill="white"/>
</g>
</svg>
